<svg viewBox="0 0 14 15" fill="none" xmlns="http://www.w3.org/2000/svg">
    <g clip-path="url(#clip0_94_67)">
        <path d="M11.2191 7.06643L11.5281 6.75745L10.6012 5.83049L8.90313 4.13245L7.97617 3.20549L7.66719 3.51448L7.04922 4.13245L1.60235 9.57932C1.31797 9.8637 1.11016 10.2164 0.995315 10.602L0.0273465 13.8942C-0.0410129 14.1239 0.0218777 14.3727 0.194143 14.5422C0.366409 14.7117 0.612503 14.7746 0.84219 14.709L4.13164 13.741C4.51719 13.6262 4.86992 13.4184 5.1543 13.134L10.6012 7.68713L11.2191 7.06643ZM4.375 11.6711L4.12617 12.2918C4.0168 12.3766 3.89375 12.4395 3.7625 12.4805L1.62422 13.1094L2.25313 10.9739C2.29141 10.8399 2.35703 10.7168 2.4418 10.6102L3.0625 10.3614V11.2364C3.0625 11.477 3.25938 11.6739 3.5 11.6739H4.375V11.6711ZM9.91758 1.26135L9.52383 1.65784L8.90586 2.27581L8.59414 2.58479L9.5211 3.51174L11.2191 5.20979L12.1461 6.13674L12.4551 5.82776L13.073 5.20979L13.4695 4.81331C14.1531 4.12971 14.1531 3.02229 13.4695 2.3387L12.3949 1.26135C11.7113 0.577759 10.6039 0.577759 9.92031 1.26135H9.91758ZM8.62149 5.8551L4.68399 9.7926C4.51446 9.96213 4.23555 9.96213 4.06602 9.7926C3.89649 9.62307 3.89649 9.34416 4.06602 9.17463L8.00352 5.23713C8.17305 5.0676 8.45195 5.0676 8.62149 5.23713C8.79102 5.40667 8.79102 5.68557 8.62149 5.8551Z"
              fill="currentColor"/>
    </g>
    <defs>
        <clipPath id="clip0_94_67">
            <path d="M0 0.75H14V14.75H0V0.75Z" fill="white"/>
        </clipPath>
    </defs>
</svg>
