<svg  viewBox="0 0 22 19" fill="none" xmlns="http://www.w3.org/2000/svg">
    <g clip-path="url(#clip0_94_61)">
        <path d="M12.016 0.882812C11.8297 0.496094 11.436 0.25 11.0035 0.25C10.5711 0.25 10.1809 0.496094 9.99103 0.882812L7.73049 5.53398L2.68205 6.2793C2.26018 6.34258 1.90861 6.63789 1.77853 7.04219C1.64846 7.44648 1.75393 7.89297 2.05627 8.1918L5.71955 11.8164L4.85471 16.9387C4.78439 17.3605 4.96018 17.7895 5.30822 18.0391C5.65627 18.2887 6.11682 18.3203 6.4965 18.1199L11.0071 15.7117L15.5176 18.1199C15.8973 18.3203 16.3578 18.2922 16.7059 18.0391C17.0539 17.7859 17.2297 17.3605 17.1594 16.9387L16.291 11.8164L19.9543 8.1918C20.2567 7.89297 20.3656 7.44648 20.232 7.04219C20.0985 6.63789 19.7504 6.34258 19.3285 6.2793L14.2766 5.53398L12.016 0.882812Z" fill="currentColor"/>
    </g>
    <defs>
        <clipPath id="clip0_94_61">
            <path d="M0.875 0.25H21.125V18.25H0.875V0.25Z" fill="white"/>
        </clipPath>
    </defs>
</svg>
